<svg width="56" height="42" viewBox="0 0 56 42" fill="none" xmlns="http://www.w3.org/2000/svg">
<path d="M2.49707 39V31.8906H4.19141C5.02148 31.8906 5.66602 32.151 6.125 32.6719C6.58398 33.1895 6.81348 33.9186 6.81348 34.8594V36.0508C6.81348 36.9915 6.58073 37.7191 6.11523 38.2334C5.64974 38.7445 4.97428 39 4.08887 39H2.49707ZM3.39062 32.6621V38.2334H4.1084C4.73665 38.2334 5.19564 38.0544 5.48535 37.6963C5.77507 37.335 5.92318 36.8011 5.92969 36.0947V34.835C5.92969 34.0863 5.78483 33.5378 5.49512 33.1895C5.20866 32.8379 4.77409 32.6621 4.19141 32.6621H3.39062ZM9.02051 39H8.15625V33.7168H9.02051V39ZM9.08887 32.3154C9.08887 32.4619 9.04818 32.584 8.9668 32.6816C8.88542 32.7793 8.76172 32.8281 8.5957 32.8281C8.43294 32.8281 8.31087 32.7793 8.22949 32.6816C8.14811 32.584 8.10742 32.4619 8.10742 32.3154C8.10742 32.1689 8.14811 32.0452 8.22949 31.9443C8.31087 31.8434 8.43294 31.793 8.5957 31.793C8.75846 31.793 8.88053 31.8451 8.96191 31.9492C9.04655 32.0501 9.08887 32.1722 9.08887 32.3154ZM11.8818 37.6865L12.8828 33.7168H13.7617L12.1943 39H11.5498L9.96289 33.7168H10.8418L11.8818 37.6865ZM16.4814 39.0977C15.8239 39.0977 15.3193 38.9023 14.9678 38.5117C14.6162 38.1178 14.4372 37.5417 14.4307 36.7832V36.1436C14.4307 35.3558 14.6016 34.7389 14.9434 34.293C15.2884 33.8438 15.7686 33.6191 16.3838 33.6191C17.0023 33.6191 17.4645 33.8161 17.7705 34.21C18.0765 34.6038 18.2327 35.2174 18.2393 36.0508V36.6172H15.29V36.7393C15.29 37.3057 15.3958 37.7174 15.6074 37.9746C15.8223 38.2318 16.1299 38.3604 16.5303 38.3604C16.7842 38.3604 17.0072 38.3132 17.1992 38.2188C17.3945 38.1211 17.5768 37.9681 17.7461 37.7598L18.1953 38.3066C17.821 38.834 17.2497 39.0977 16.4814 39.0977ZM16.3838 34.3613C16.0257 34.3613 15.7604 34.485 15.5879 34.7324C15.4154 34.9766 15.3177 35.3574 15.2949 35.875H17.375V35.7578C17.3522 35.2565 17.2611 34.8984 17.1016 34.6836C16.9453 34.4688 16.7061 34.3613 16.3838 34.3613ZM21.4619 34.5273C21.3415 34.5046 21.2113 34.4932 21.0713 34.4932C20.6286 34.4932 20.3193 34.7357 20.1436 35.2207V39H19.2793V33.7168H20.1191L20.1338 34.2539C20.3649 33.8307 20.6921 33.6191 21.1152 33.6191C21.252 33.6191 21.3659 33.6419 21.457 33.6875L21.4619 34.5273ZM22.0576 36.1191C22.0576 35.2956 22.2074 34.6738 22.5068 34.2539C22.8063 33.8307 23.2441 33.6191 23.8203 33.6191C24.3574 33.6191 24.766 33.8486 25.0459 34.3076L25.0898 33.7168H25.8711V39.0488C25.8711 39.7031 25.7035 40.2044 25.3682 40.5527C25.0329 40.9043 24.5658 41.0801 23.9668 41.0801C23.7064 41.0801 23.4134 41.015 23.0879 40.8848C22.7656 40.7578 22.5231 40.5999 22.3604 40.4111L22.7119 39.8154C23.07 40.167 23.4655 40.3428 23.8984 40.3428C24.6178 40.3428 24.9873 39.9505 25.0068 39.166V38.4775C24.7269 38.891 24.3298 39.0977 23.8154 39.0977C23.2686 39.0977 22.8421 38.8926 22.5361 38.4824C22.2301 38.069 22.0706 37.4766 22.0576 36.7051V36.1191ZM22.9219 36.6123C22.9219 37.2048 23.0081 37.641 23.1807 37.9209C23.3564 38.1976 23.6429 38.3359 24.04 38.3359C24.4697 38.3359 24.792 38.1162 25.0068 37.6768V35.0352C24.7822 34.6022 24.4632 34.3857 24.0498 34.3857C23.6527 34.3857 23.3662 34.5257 23.1904 34.8057C23.0146 35.0824 22.9251 35.5088 22.9219 36.085V36.6123ZM27.2188 38.5264C27.2188 38.3701 27.2643 38.2399 27.3555 38.1357C27.4499 38.0316 27.5898 37.9795 27.7754 37.9795C27.9609 37.9795 28.1009 38.0316 28.1953 38.1357C28.293 38.2399 28.3418 38.3701 28.3418 38.5264C28.3418 38.6761 28.293 38.8014 28.1953 38.9023C28.1009 39.0033 27.9609 39.0537 27.7754 39.0537C27.5898 39.0537 27.4499 39.0033 27.3555 38.9023C27.2643 38.8014 27.2188 38.6761 27.2188 38.5264ZM33.1074 36.2168V39H32.2139V31.8906H34.4795C35.1403 31.8906 35.6595 32.0892 36.0371 32.4863C36.4147 32.8802 36.6035 33.4059 36.6035 34.0635C36.6035 34.7471 36.4229 35.2744 36.0615 35.6455C35.7035 36.0133 35.1973 36.2038 34.543 36.2168H33.1074ZM33.1074 35.4502H34.4795C34.8766 35.4502 35.181 35.3314 35.3926 35.0938C35.6042 34.8561 35.71 34.516 35.71 34.0732C35.71 33.6468 35.6009 33.305 35.3828 33.0479C35.1647 32.7907 34.8652 32.6621 34.4844 32.6621H33.1074V35.4502ZM39.8213 34.5273C39.7008 34.5046 39.5706 34.4932 39.4307 34.4932C38.988 34.4932 38.6787 34.7357 38.5029 35.2207V39H37.6387V33.7168H38.4785L38.4932 34.2539C38.7243 33.8307 39.0514 33.6191 39.4746 33.6191C39.6113 33.6191 39.7253 33.6419 39.8164 33.6875L39.8213 34.5273ZM42.4775 39.0977C41.82 39.0977 41.3154 38.9023 40.9639 38.5117C40.6123 38.1178 40.4333 37.5417 40.4268 36.7832V36.1436C40.4268 35.3558 40.5977 34.7389 40.9395 34.293C41.2845 33.8438 41.7646 33.6191 42.3799 33.6191C42.9984 33.6191 43.4606 33.8161 43.7666 34.21C44.0726 34.6038 44.2288 35.2174 44.2354 36.0508V36.6172H41.2861V36.7393C41.2861 37.3057 41.3919 37.7174 41.6035 37.9746C41.8184 38.2318 42.126 38.3604 42.5264 38.3604C42.7803 38.3604 43.0033 38.3132 43.1953 38.2188C43.3906 38.1211 43.5729 37.9681 43.7422 37.7598L44.1914 38.3066C43.8171 38.834 43.2458 39.0977 42.4775 39.0977ZM42.3799 34.3613C42.0218 34.3613 41.7565 34.485 41.584 34.7324C41.4115 34.9766 41.3138 35.3574 41.291 35.875H43.3711V35.7578C43.3483 35.2565 43.2572 34.8984 43.0977 34.6836C42.9414 34.4688 42.7021 34.3613 42.3799 34.3613ZM47.1113 38.3604C47.3978 38.3604 47.6273 38.2725 47.7998 38.0967C47.9723 37.9176 48.0667 37.6637 48.083 37.335H48.8984C48.8789 37.8428 48.6982 38.2643 48.3564 38.5996C48.0179 38.9316 47.6029 39.0977 47.1113 39.0977C46.457 39.0977 45.9574 38.8926 45.6123 38.4824C45.2705 38.069 45.0996 37.4554 45.0996 36.6416V36.0605C45.0996 35.263 45.2705 34.6576 45.6123 34.2441C45.9541 33.8275 46.4521 33.6191 47.1064 33.6191C47.6468 33.6191 48.0749 33.79 48.3906 34.1318C48.7096 34.4736 48.8789 34.9408 48.8984 35.5332H48.083C48.0635 35.1426 47.9691 34.8496 47.7998 34.6543C47.6338 34.459 47.4027 34.3613 47.1064 34.3613C46.7223 34.3613 46.4375 34.4883 46.252 34.7422C46.0664 34.9928 45.9704 35.4062 45.9639 35.9824V36.6562C45.9639 37.278 46.055 37.7174 46.2373 37.9746C46.4229 38.2318 46.7142 38.3604 47.1113 38.3604ZM47.2285 39.0439L47.1797 39.2979C47.375 39.3402 47.5247 39.4346 47.6289 39.5811C47.7331 39.7275 47.7852 39.9147 47.7852 40.1426C47.7852 40.4551 47.6761 40.7041 47.458 40.8896C47.2432 41.0752 46.9339 41.168 46.5303 41.168L46.501 40.6455C46.9176 40.6455 47.126 40.4844 47.126 40.1621C47.126 40.0156 47.082 39.9082 46.9941 39.8398C46.9095 39.7747 46.7386 39.7275 46.4814 39.6982L46.6182 39.0439H47.2285ZM49.7139 36.1143C49.7139 35.346 49.8994 34.7389 50.2705 34.293C50.6449 33.8438 51.138 33.6191 51.75 33.6191C52.362 33.6191 52.8535 33.8372 53.2246 34.2734C53.599 34.7096 53.791 35.3037 53.8008 36.0557V36.6123C53.8008 37.3773 53.6152 37.9827 53.2441 38.4287C52.873 38.8747 52.3783 39.0977 51.7598 39.0977C51.1478 39.0977 50.6562 38.8812 50.2852 38.4482C49.9173 38.0153 49.7269 37.4294 49.7139 36.6904V36.1143ZM50.5781 36.6123C50.5781 37.1559 50.6839 37.584 50.8955 37.8965C51.1104 38.2057 51.3984 38.3604 51.7598 38.3604C52.5215 38.3604 52.9137 37.8102 52.9365 36.71V36.1143C52.9365 35.5739 52.8291 35.1475 52.6143 34.835C52.3994 34.5192 52.1113 34.3613 51.75 34.3613C51.3952 34.3613 51.1104 34.5192 50.8955 34.835C50.6839 35.1475 50.5781 35.5723 50.5781 36.1094V36.6123Z" fill="#34495E"/>
<g clip-path="url(#clip0)">
<path fill-rule="evenodd" clip-rule="evenodd" d="M18.9999 1L12.7499 10.3751H16.1172V17L18 17C18 13.0326 20.3104 9.60482 23.6591 7.98873L18.9999 1Z" fill="url(#paint0_linear)"/>
<path fill-rule="evenodd" clip-rule="evenodd" d="M38 17C38 20.9674 35.6896 24.3952 32.3408 26.0113L37 33L43.25 23.625H39.8828V17H38Z" fill="url(#paint1_linear)"/>
<path d="M28 7.91626C22.9831 7.91626 18.9163 11.9831 18.9163 17C18.9163 22.0169 22.9831 26.0838 28 26.0838C33.0169 26.0838 37.0838 22.0169 37.0838 17C37.0838 11.9831 33.0169 7.91626 28 7.91626ZM28.7844 21.925V23.2044H27.5606V21.9394C25.5525 21.6644 24.6731 20.0144 24.6731 20.0144L25.9231 18.9688C25.9231 18.9688 26.7213 20.3581 28.165 20.3581C28.9625 20.3581 29.5675 19.9313 29.5675 19.2019C29.5675 17.4969 24.9738 17.7038 24.9738 14.5406C24.9738 13.1656 26.0613 12.175 27.56 11.9406V10.6625H28.7838V11.9406C29.8288 12.0781 31.0663 12.6281 31.0663 13.8113V14.7188H29.4438V14.2788C29.4438 13.825 28.8656 13.5225 28.2188 13.5225C27.3938 13.5225 26.7894 13.935 26.7894 14.5125C26.7894 16.2588 31.3831 15.8325 31.3831 19.1469C31.3831 20.5094 30.3656 21.6906 28.7844 21.925Z" fill="url(#paint2_linear)"/>
</g>
<defs>
<linearGradient id="paint0_linear" x1="19.37" y1="2.85409" x2="19.2689" y2="17.0006" gradientUnits="userSpaceOnUse">
<stop stop-color="#FBAE17"/>
<stop offset="1" stop-color="#EE3B28"/>
</linearGradient>
<linearGradient id="paint1_linear" x1="38.9609" y1="18.8541" x2="38.8598" y2="33.0006" gradientUnits="userSpaceOnUse">
<stop stop-color="#FBAE17"/>
<stop offset="1" stop-color="#EE3B28"/>
</linearGradient>
<linearGradient id="paint2_linear" x1="36.897" y1="16.3302" x2="19.3932" y2="16.2186" gradientUnits="userSpaceOnUse">
<stop stop-color="#00BBE0"/>
<stop offset="1" stop-color="#00538F"/>
</linearGradient>
<clipPath id="clip0">
<rect width="32" height="32" fill="white" transform="translate(12 1)"/>
</clipPath>
</defs>
</svg>
