<svg width="181" height="40" viewBox="0 0 181 40" fill="none" xmlns="http://www.w3.org/2000/svg">
<path d="M38.6219 0.207458H1.52645C0.797753 0.207458 0.207031 0.798181 0.207031 1.52688V38.4738C0.207031 39.2025 0.797753 39.7933 1.52645 39.7933H38.6219C39.3506 39.7933 39.9414 39.2025 39.9414 38.4738V1.52688C39.9414 0.798181 39.3506 0.207458 38.6219 0.207458Z" fill="url(#paint0_linear)" stroke="white" stroke-width="0.282222" stroke-linecap="round" stroke-linejoin="round"/>
<path d="M20.2504 12.4886C22.2227 12.4886 23.8215 10.8898 23.8215 8.9175C23.8215 6.94522 22.2227 5.34637 20.2504 5.34637C18.2781 5.34637 16.6793 6.94522 16.6793 8.9175C16.6793 10.8898 18.2781 12.4886 20.2504 12.4886Z" fill="white"/>
<path d="M22.797 14.2742H17.5191V34.677H22.797V14.2742Z" fill="white"/>
<path d="M74.2375 2.02808C72.9757 2.02808 71.924 3.08055 71.924 4.34239V10.6428H68.4489V12.555H71.924V28.5976H74.2554V12.555H80.3324V10.6428H74.2554V4.35945H80.3324V2.02808H74.2375Z" fill="white"/>
<path d="M46.851 10.6035V28.5976H49.1823V10.6035H46.851Z" fill="white"/>
<path d="M46.851 3.80768V7.54205H49.1823V3.80768H46.851Z" fill="white"/>
<path d="M84.3628 12.9263H91.9355C92.1935 12.9263 92.4011 13.1339 92.4011 13.3918V25.8664C92.4011 26.1243 92.1935 26.332 91.9355 26.332H84.3628C84.1049 26.332 83.8972 26.1243 83.8972 25.8664V13.3918C83.8972 13.1339 84.1049 12.9263 84.3628 12.9263ZM83.8752 10.6435C82.6133 10.6435 81.5609 11.696 81.5609 12.9578V26.2873C81.5609 27.5491 82.6133 28.6008 83.8752 28.6008H92.4606C93.7225 28.6008 94.775 27.5491 94.775 26.2873V12.9578C94.775 11.696 93.7225 10.6435 92.4606 10.6435H83.8752Z" fill="white"/>
<path d="M55.4292 10.6435C54.1674 10.6435 53.1149 11.696 53.1149 12.9578V28.5975H55.4511V13.3916C55.4511 13.1337 55.6586 12.9261 55.9166 12.9261H63.4891C63.747 12.9261 63.9554 13.1337 63.9554 13.3916V28.5975H66.329V12.9578C66.329 11.696 65.2765 10.6435 64.0147 10.6435H55.4292Z" fill="white"/>
<path d="M101.031 10.6435C99.7691 10.6435 98.7166 11.696 98.7166 12.9578V28.5975H101.053V13.3916C101.053 13.1336 101.26 12.9261 101.518 12.9261L107.737 12.9253V15.0415H110.111V10.6369L101.031 10.6435Z" fill="white"/>
<path d="M115.737 10.6435C114.475 10.6435 113.422 11.696 113.422 12.9578V28.5975H115.759V13.3916C115.759 13.1337 115.966 12.9261 116.224 12.9261H121.421C121.677 12.9261 121.883 13.1316 121.885 13.3875V28.5975H121.886H124.259H124.26V13.3875C124.262 13.1316 124.468 12.9261 124.724 12.9261H129.921C130.179 12.9261 130.386 13.1337 130.386 13.3916V28.5975H132.722V12.9578C132.722 11.696 131.67 10.6435 130.408 10.6435H124.199H121.945H115.737H115.737Z" fill="white"/>
<path d="M136.462 10.6435V12.9261H146.419C146.677 12.9261 146.885 13.1337 146.885 13.3916V15.6344H138.358C137.097 15.6344 136.044 16.6869 136.044 17.9487V26.2873C136.044 27.5491 137.097 28.6008 138.358 28.6008L149.258 28.5993V17.9489V12.958C149.258 11.6961 148.206 10.6436 146.944 10.6436L136.462 10.6435ZM146.885 17.9163V26.3327L138.846 26.3319C138.588 26.3319 138.38 26.1236 138.38 25.8657V18.3825C138.38 18.1246 138.607 17.917 138.846 17.917L146.885 17.9163Z" fill="white"/>
<path d="M155.418 2.02808V10.6428H155.21H151.735V12.555H155.21H155.418V26.2833C155.418 27.5451 156.469 28.5976 157.731 28.5976H163.826V26.2663H157.749V12.555H163.618V10.6428H157.749V2.02808H155.418Z" fill="white"/>
<path d="M166.824 10.6435V12.9261H176.781C177.039 12.9261 177.246 13.1337 177.246 13.3916V15.6344H168.72C167.458 15.6344 166.406 16.6869 166.406 17.9487V26.2873C166.406 27.5491 167.458 28.6008 168.72 28.6008L179.62 28.5993V17.9489V12.958C179.62 11.6961 178.567 10.6436 177.306 10.6436L166.824 10.6435ZM177.246 17.9163V26.3327L169.208 26.3319C168.95 26.3319 168.742 26.1236 168.742 25.8657V18.3825C168.742 18.1246 168.969 17.917 169.208 17.917L177.246 17.9163Z" fill="white"/>
<path d="M49.8724 32.0866V32.7067C49.6311 32.5912 49.4034 32.5052 49.1894 32.4485C48.9753 32.3919 48.7686 32.3635 48.5692 32.3635C48.223 32.3635 47.9554 32.4307 47.7666 32.565C47.5798 32.6993 47.4864 32.8902 47.4864 33.1379C47.4864 33.3456 47.5483 33.503 47.6721 33.61C47.798 33.7149 48.0352 33.7999 48.3835 33.865L48.7676 33.9437C49.2418 34.034 49.5912 34.1935 49.8158 34.4221C50.0424 34.6488 50.1557 34.9531 50.1557 35.335C50.1557 35.7904 50.0025 36.1356 49.6961 36.3706C49.3919 36.6056 48.9449 36.7232 48.3552 36.7232C48.1327 36.7232 47.8956 36.698 47.6438 36.6476C47.3941 36.5972 47.1349 36.5227 46.8663 36.4241V35.7693C47.1244 35.9141 47.3773 36.0232 47.6249 36.0967C47.8725 36.1702 48.116 36.2069 48.3552 36.2069C48.7182 36.2069 48.9984 36.1356 49.1956 35.9929C49.3929 35.8502 49.4915 35.6466 49.4915 35.3822C49.4915 35.1514 49.4202 34.9709 49.2775 34.8408C49.1369 34.7107 48.905 34.6131 48.5818 34.5481L48.1947 34.4725C47.7204 34.378 47.3773 34.2301 47.1653 34.0286C46.9534 33.8272 46.8474 33.547 46.8474 33.1882C46.8474 32.7727 46.9933 32.4453 47.285 32.2061C47.5787 31.9668 47.9827 31.8472 48.4968 31.8472C48.7172 31.8472 48.9417 31.8672 49.1705 31.9071C49.3992 31.9469 49.6332 32.0068 49.8724 32.0865V32.0866Z" fill="white"/>
<path d="M52.4673 33.5124C52.1567 33.5124 51.9112 33.6341 51.7307 33.8776C51.5503 34.1189 51.46 34.4505 51.46 34.8723C51.46 35.2941 51.5492 35.6267 51.7276 35.8701C51.9081 36.1114 52.1546 36.2321 52.4673 36.2321C52.7758 36.2321 53.0203 36.1104 53.2007 35.8669C53.3812 35.6235 53.4715 35.292 53.4715 34.8723C53.4715 34.4546 53.3812 34.1241 53.2007 33.8807C53.0203 33.6352 52.7758 33.5124 52.4673 33.5124ZM52.4673 33.0214C52.971 33.0214 53.3665 33.1851 53.654 33.5124C53.9415 33.8398 54.0853 34.2931 54.0853 34.8723C54.0853 35.4493 53.9415 35.9026 53.654 36.2321C53.3665 36.5594 52.971 36.7231 52.4673 36.7231C51.9616 36.7231 51.565 36.5594 51.2775 36.2321C50.9921 35.9026 50.8494 35.4493 50.8494 34.8723C50.8494 34.2931 50.9921 33.8398 51.2775 33.5124C51.565 33.1851 51.9616 33.0214 52.4673 33.0214Z" fill="white"/>
<path d="M55.0217 31.7341H55.6009V36.632H55.0217V31.7341Z" fill="white"/>
<path d="M56.7283 35.2408V33.1066H57.3075V35.2187C57.3075 35.5524 57.3725 35.8032 57.5026 35.971C57.6327 36.1368 57.8279 36.2197 58.0881 36.2197C58.4008 36.2197 58.6474 36.12 58.8278 35.9207C59.0104 35.7213 59.1017 35.4495 59.1017 35.1054V33.1066H59.6809V36.6321H59.1017V36.0907C58.9611 36.3047 58.7974 36.4642 58.6106 36.5691C58.426 36.6719 58.2109 36.7233 57.9653 36.7233C57.5603 36.7233 57.2529 36.5974 57.0431 36.3456C56.8332 36.0938 56.7283 35.7255 56.7283 35.2408Z" fill="white"/>
<path d="M63.3966 33.2417V33.7831C63.2329 33.6929 63.0682 33.6258 62.9024 33.5817C62.7387 33.5355 62.5729 33.5124 62.405 33.5124C62.0294 33.5124 61.7377 33.632 61.53 33.8713C61.3222 34.1084 61.2183 34.4421 61.2183 34.8722C61.2183 35.3024 61.3222 35.6372 61.53 35.8764C61.7377 36.1135 62.0294 36.2321 62.405 36.2321C62.5729 36.2321 62.7387 36.2101 62.9024 36.166C63.0682 36.1199 63.2329 36.0517 63.3966 35.9614V36.4966C63.235 36.5721 63.0671 36.6288 62.8929 36.6666C62.7209 36.7043 62.5372 36.7231 62.3421 36.7231C61.8112 36.7231 61.3894 36.5563 61.0767 36.2227C60.764 35.889 60.6077 35.4389 60.6077 34.8723C60.6077 34.2973 60.765 33.845 61.0798 33.5156C61.3967 33.1861 61.83 33.0214 62.3799 33.0214C62.5582 33.0214 62.7324 33.0402 62.9024 33.078C63.0724 33.1136 63.2371 33.1682 63.3966 33.2416V33.2417ZM62.5782 36.6318C62.6936 36.762 62.7796 36.8816 62.8363 36.9907C62.8929 37.1019 62.9213 37.2079 62.9213 37.3086C62.9213 37.4954 62.8583 37.636 62.7324 37.7304C62.6065 37.8269 62.4197 37.8751 62.1721 37.8751C62.0756 37.8751 61.9811 37.8688 61.8888 37.8563C61.7986 37.8437 61.7083 37.8248 61.6181 37.7997V37.3873C61.6894 37.423 61.7639 37.4482 61.8416 37.4629C61.9192 37.4797 62.0074 37.4881 62.106 37.4881C62.2298 37.4881 62.3232 37.4629 62.3861 37.4125C62.4491 37.3621 62.4806 37.2887 62.4806 37.1922C62.4806 37.1292 62.4575 37.0516 62.4113 36.9592C62.3673 36.869 62.298 36.7599 62.2036 36.6319L62.5782 36.6318Z" fill="white"/>
<path d="M65.7562 33.5125C65.4456 33.5125 65.2001 33.6342 65.0196 33.8776C64.8391 34.119 64.7489 34.4505 64.7489 34.8723C64.7489 35.2941 64.8381 35.6268 65.0165 35.8702C65.1969 36.1115 65.4435 36.2322 65.7562 36.2322C66.0647 36.2322 66.3091 36.1104 66.4896 35.867C66.6701 35.6236 66.7603 35.292 66.7603 34.8723C66.7603 34.4547 66.6701 34.1242 66.4896 33.8808C66.3091 33.6353 66.0647 33.5125 65.7562 33.5125ZM65.7562 33.0214C66.2598 33.0214 66.6554 33.1851 66.9429 33.5125C67.2304 33.8399 67.3741 34.2931 67.3741 34.8723C67.3741 35.4494 67.2304 35.9027 66.9429 36.2322C66.6554 36.5595 66.2598 36.7232 65.7562 36.7232C65.2505 36.7232 64.8538 36.5595 64.5663 36.2322C64.2809 35.9027 64.1382 35.4494 64.1382 34.8723C64.1382 34.2931 64.2809 33.8399 64.5663 33.5125C64.8538 33.1851 65.2505 33.0214 65.7562 33.0214ZM65.7437 32.3195L65.5642 32.1464C65.5181 32.1044 65.4772 32.074 65.4415 32.0552C65.4079 32.0341 65.3775 32.0236 65.3502 32.0236C65.2704 32.0236 65.2117 32.0624 65.1739 32.14C65.1361 32.2156 65.1152 32.3394 65.111 32.5115H64.7175C64.7217 32.2282 64.7773 32.0099 64.8843 31.8567C64.9914 31.7014 65.1404 31.6238 65.3313 31.6238C65.4111 31.6238 65.4845 31.6385 65.5517 31.6679C65.6188 31.6972 65.6912 31.7466 65.7689 31.8158L65.9483 31.9889C65.9944 32.0309 66.0343 32.0624 66.0679 32.0834C66.1036 32.1023 66.135 32.1117 66.1623 32.1117C66.2421 32.1117 66.3008 32.0739 66.3386 31.9984C66.3764 31.9208 66.3974 31.7959 66.4016 31.6238H66.795C66.7908 31.9071 66.7352 32.1264 66.6282 32.2817C66.5212 32.4349 66.3722 32.5114 66.1812 32.5114C66.1015 32.5114 66.028 32.4968 65.9609 32.4674C65.8937 32.438 65.8213 32.3887 65.7437 32.3194L65.7437 32.3195Z" fill="white"/>
<path d="M71.3257 34.7245V35.0078H68.6627C68.6879 35.4065 68.8075 35.7108 69.0216 35.9206C69.2377 36.1284 69.5378 36.2323 69.9218 36.2323C70.1443 36.2323 70.3594 36.205 70.5671 36.1505C70.777 36.096 70.9847 36.0141 71.1904 35.905V36.4527C70.9826 36.5408 70.7696 36.6079 70.5514 36.6541C70.3331 36.7003 70.1117 36.7234 69.8872 36.7234C69.3248 36.7234 68.8789 36.5597 68.5494 36.2323C68.222 35.905 68.0583 35.4622 68.0583 34.904C68.0583 34.3269 68.2136 33.8694 68.5242 33.5316C68.8369 33.1916 69.2576 33.0216 69.7865 33.0216C70.2607 33.0216 70.6353 33.1748 70.9102 33.4812C71.1872 33.7855 71.3257 34.1999 71.3257 34.7246V34.7245ZM70.7465 34.5545C70.7423 34.2377 70.6531 33.9848 70.479 33.7959C70.3069 33.607 70.0782 33.5126 69.7928 33.5126C69.4696 33.5126 69.2104 33.6039 69.0153 33.7865C68.8222 33.969 68.711 34.2261 68.6816 34.5577L70.7465 34.5545Z" fill="white"/>
<path d="M74.5032 33.2104V33.7581C74.3396 33.6742 74.1696 33.6113 73.9933 33.5693C73.817 33.5273 73.6345 33.5063 73.4456 33.5063C73.1581 33.5063 72.942 33.5504 72.7972 33.6385C72.6545 33.7267 72.5831 33.8589 72.5831 34.0351C72.5831 34.1695 72.6345 34.2754 72.7373 34.3531C72.8402 34.4286 73.0469 34.501 73.3575 34.5703L73.5558 34.6143C73.9671 34.7025 74.2588 34.8273 74.4308 34.9889C74.605 35.1484 74.6921 35.3719 74.6921 35.6594C74.6921 35.9868 74.562 36.2459 74.3018 36.4369C74.0437 36.6279 73.688 36.7233 73.2347 36.7233C73.0458 36.7233 72.8486 36.7045 72.6429 36.6667C72.4394 36.6311 72.2243 36.5765 71.9976 36.5031V35.905C72.2117 36.0162 72.4226 36.1001 72.6303 36.1568C72.8381 36.2113 73.0437 36.2386 73.2473 36.2386C73.5201 36.2386 73.7299 36.1924 73.8768 36.1001C74.0237 36.0057 74.0972 35.8734 74.0972 35.7034C74.0972 35.5461 74.0437 35.4254 73.9367 35.3415C73.8317 35.2576 73.5998 35.1768 73.241 35.0991L73.0395 35.0519C72.6807 34.9764 72.4215 34.861 72.262 34.7057C72.1026 34.5483 72.0228 34.3332 72.0228 34.0604C72.0228 33.7288 72.1403 33.4728 72.3754 33.2923C72.6104 33.1118 72.9441 33.0216 73.3763 33.0216C73.5904 33.0216 73.7918 33.0373 73.9807 33.0688C74.1696 33.1002 74.3438 33.1474 74.5032 33.2104V33.2104Z" fill="white"/>
<path d="M80.3904 32.2944V32.9649C80.1763 32.7655 79.9476 32.6165 79.7042 32.5179C79.4628 32.4192 79.2058 32.3699 78.933 32.3699C78.3957 32.3699 77.9844 32.5347 77.699 32.8641C77.4136 33.1915 77.2709 33.6658 77.2709 34.2869C77.2709 34.906 77.4136 35.3802 77.699 35.7097C77.9844 36.0371 78.3957 36.2007 78.933 36.2007C79.2058 36.2007 79.4628 36.1514 79.7042 36.0528C79.9476 35.9542 80.1763 35.8052 80.3904 35.6058V36.27C80.1679 36.4211 79.9318 36.5344 79.6821 36.61C79.4345 36.6855 79.1722 36.7233 78.8952 36.7233C78.1838 36.7233 77.6235 36.5061 77.2143 36.0717C76.8051 35.6352 76.6005 35.0403 76.6005 34.2869C76.6005 33.5315 76.8051 32.9365 77.2143 32.5022C77.6235 32.0657 78.1838 31.8474 78.8952 31.8474C79.1764 31.8474 79.4408 31.8852 79.6884 31.9607C79.9381 32.0342 80.1721 32.1455 80.3904 32.2944V32.2944Z" fill="white"/>
<path d="M82.6985 33.5124C82.3879 33.5124 82.1424 33.6341 81.9619 33.8776C81.7814 34.1189 81.6912 34.4505 81.6912 34.8723C81.6912 35.2941 81.7804 35.6267 81.9587 35.8701C82.1392 36.1114 82.3858 36.2321 82.6985 36.2321C83.0069 36.2321 83.2514 36.1104 83.4319 35.8669C83.6124 35.6235 83.7026 35.292 83.7026 34.8723C83.7026 34.4546 83.6124 34.1241 83.4319 33.8807C83.2514 33.6352 83.0069 33.5124 82.6985 33.5124ZM82.6985 33.0214C83.2021 33.0214 83.5977 33.1851 83.8852 33.5124C84.1727 33.8398 84.3164 34.2931 84.3164 34.8723C84.3164 35.4493 84.1727 35.9026 83.8852 36.2321C83.5977 36.5594 83.2021 36.7231 82.6985 36.7231C82.1927 36.7231 81.7961 36.5594 81.5086 36.2321C81.2232 35.9026 81.0805 35.4493 81.0805 34.8723C81.0805 34.2931 81.2232 33.8398 81.5086 33.5124C81.7961 33.1851 82.1927 33.0214 82.6985 33.0214Z" fill="white"/>
<path d="M87.9978 33.7831C88.1426 33.5229 88.3157 33.3309 88.5172 33.2071C88.7186 33.0833 88.9557 33.0214 89.2286 33.0214C89.5958 33.0214 89.8791 33.1504 90.0785 33.4086C90.2778 33.6646 90.3775 34.0297 90.3775 34.504V36.6319H89.7952V34.5229C89.7952 34.185 89.7353 33.9342 89.6157 33.7705C89.4961 33.6069 89.3135 33.525 89.068 33.525C88.7679 33.525 88.5308 33.6247 88.3566 33.824C88.1824 34.0234 88.0954 34.2952 88.0954 34.6393V36.6319H87.513V34.5229C87.513 34.1829 87.4532 33.9321 87.3336 33.7705C87.214 33.6069 87.0293 33.525 86.7796 33.525C86.4837 33.525 86.2487 33.6257 86.0745 33.8272C85.9003 34.0266 85.8132 34.2973 85.8132 34.6393V36.6319H85.2309V33.1064H85.8132V33.6541C85.9454 33.4379 86.1039 33.2784 86.2885 33.1756C86.4732 33.0728 86.6925 33.0214 86.9464 33.0214C87.2024 33.0214 87.4196 33.0864 87.598 33.2165C87.7785 33.3466 87.9117 33.5355 87.9978 33.7831Z" fill="white"/>
<path d="M94.5313 34.7245V35.0078H91.8683C91.8934 35.4065 92.0131 35.7108 92.2271 35.9206C92.4433 36.1284 92.7434 36.2323 93.1274 36.2323C93.3498 36.2323 93.5649 36.205 93.7727 36.1505C93.9825 36.096 94.1903 36.0141 94.3959 35.905V36.4527C94.1882 36.5408 93.9752 36.6079 93.7569 36.6541C93.5387 36.7003 93.3173 36.7234 93.0928 36.7234C92.5304 36.7234 92.0844 36.5597 91.755 36.2323C91.4276 35.905 91.2639 35.4622 91.2639 34.904C91.2639 34.3269 91.4192 33.8694 91.7298 33.5316C92.0425 33.1916 92.4632 33.0216 92.992 33.0216C93.4663 33.0216 93.8409 33.1748 94.1158 33.4812C94.3928 33.7855 94.5313 34.1999 94.5313 34.7246V34.7245ZM93.9521 34.5545C93.9482 34.2377 93.859 33.9848 93.6845 33.7959C93.5125 33.607 93.2837 33.5126 92.9983 33.5126C92.6752 33.5126 92.416 33.6039 92.2208 33.7865C92.0278 33.969 91.9165 34.2261 91.8872 34.5577L93.9521 34.5545Z" fill="white"/>
<path d="M97.5033 33.6479C97.4383 33.6102 97.3669 33.5829 97.2892 33.5661C97.2137 33.5473 97.1298 33.5378 97.0374 33.5378C96.7101 33.5378 96.4582 33.6449 96.282 33.8589C96.1078 34.0709 96.0207 34.3762 96.0207 34.7749V36.6321H95.4384V33.1066H96.0207V33.6543C96.1424 33.4403 96.3008 33.2818 96.496 33.179C96.6912 33.0741 96.9283 33.0216 97.2074 33.0216C97.2473 33.0216 97.2913 33.0245 97.3396 33.0304C97.3878 33.0344 97.4413 33.0417 97.5001 33.0524L97.5033 33.6479Z" fill="white"/>
<path d="M100.495 33.2417V33.7831C100.331 33.6929 100.166 33.6258 100.001 33.5817C99.837 33.5355 99.6712 33.5124 99.5033 33.5124C99.1277 33.5124 98.836 33.632 98.6282 33.8713C98.4205 34.1084 98.3166 34.4421 98.3166 34.8722C98.3166 35.3024 98.4205 35.6372 98.6282 35.8764C98.836 36.1135 99.1277 36.2321 99.5033 36.2321C99.6712 36.2321 99.837 36.2101 100.001 36.166C100.166 36.1199 100.331 36.0517 100.495 35.9614V36.4966C100.333 36.5721 100.165 36.6288 99.9912 36.6666C99.8191 36.7043 99.6355 36.7231 99.4404 36.7231C98.9094 36.7231 98.4876 36.5563 98.175 36.2227C97.8623 35.889 97.7059 35.4389 97.7059 34.8723C97.7059 34.2973 97.8633 33.845 98.1781 33.5156C98.495 33.1861 98.9283 33.0214 99.4781 33.0214C99.6565 33.0214 99.8307 33.0402 100.001 33.078C100.171 33.1136 100.335 33.1682 100.495 33.2416V33.2417Z" fill="white"/>
<path d="M101.488 33.1065H102.067V36.632H101.488V33.1065ZM101.488 31.7341H102.067V32.4675H101.488V31.7341Z" fill="white"/>
<path d="M104.857 34.8599C104.389 34.8599 104.065 34.9134 103.885 35.0204C103.704 35.1274 103.614 35.31 103.614 35.5681C103.614 35.7738 103.681 35.9374 103.815 36.0592C103.952 36.1788 104.136 36.2386 104.369 36.2386C104.69 36.2386 104.948 36.1253 105.141 35.8986C105.336 35.6699 105.433 35.3666 105.433 34.9889V34.8598L104.857 34.8599ZM106.012 34.6206V36.632H105.433V36.0969C105.301 36.311 105.136 36.4694 104.939 36.5722C104.742 36.673 104.501 36.7233 104.215 36.7233C103.854 36.7233 103.567 36.6226 103.353 36.4211C103.141 36.2176 103.035 35.9458 103.035 35.6059C103.035 35.2093 103.167 34.9102 103.431 34.7088C103.698 34.5073 104.094 34.4066 104.621 34.4066H105.433V34.35C105.433 34.0835 105.345 33.8778 105.169 33.733C104.995 33.5861 104.749 33.5127 104.432 33.5127C104.231 33.5127 104.035 33.5368 103.844 33.585C103.653 33.6333 103.469 33.7057 103.293 33.8022V33.2671C103.505 33.1853 103.71 33.1244 103.91 33.0845C104.109 33.0426 104.303 33.0216 104.492 33.0216C105.002 33.0216 105.383 33.1538 105.635 33.4182C105.887 33.6827 106.012 34.0835 106.012 34.6207V34.6206Z" fill="white"/>
<path d="M107.188 33.1065H107.767V36.632H107.188V33.1065ZM107.188 31.7341H107.767V32.4675H107.188V31.7341Z" fill="white"/>
<path d="M111.202 33.2104V33.7581C111.039 33.6742 110.869 33.6113 110.693 33.5693C110.516 33.5273 110.334 33.5063 110.145 33.5063C109.857 33.5063 109.641 33.5504 109.496 33.6385C109.354 33.7267 109.282 33.8589 109.282 34.0351C109.282 34.1695 109.334 34.2754 109.437 34.3531C109.539 34.4286 109.746 34.501 110.057 34.5703L110.255 34.6143C110.666 34.7025 110.958 34.8273 111.13 34.9889C111.304 35.1484 111.391 35.3719 111.391 35.6594C111.391 35.9868 111.261 36.2459 111.001 36.4369C110.743 36.6279 110.387 36.7233 109.934 36.7233C109.745 36.7233 109.548 36.7045 109.342 36.6667C109.139 36.6311 108.923 36.5765 108.697 36.5031V35.905C108.911 36.0162 109.122 36.1001 109.33 36.1568C109.537 36.2113 109.743 36.2386 109.947 36.2386C110.219 36.2386 110.429 36.1924 110.576 36.1001C110.723 36.0057 110.796 35.8734 110.796 35.7034C110.796 35.5461 110.743 35.4254 110.636 35.3415C110.531 35.2576 110.299 35.1768 109.94 35.0991L109.739 35.0519C109.38 34.9764 109.121 34.861 108.961 34.7057C108.802 34.5483 108.722 34.3332 108.722 34.0604C108.722 33.7288 108.84 33.4728 109.075 33.2923C109.31 33.1118 109.643 33.0216 110.076 33.0216C110.29 33.0216 110.491 33.0373 110.68 33.0688C110.869 33.1002 111.043 33.1474 111.202 33.2104V33.2104Z" fill="white"/>
<path d="M116.561 34.7245V35.0078H113.898C113.923 35.4065 114.043 35.7108 114.257 35.9206C114.473 36.1284 114.773 36.2323 115.157 36.2323C115.38 36.2323 115.595 36.205 115.802 36.1505C116.012 36.096 116.22 36.0141 116.426 35.905V36.4527C116.218 36.5408 116.005 36.6079 115.787 36.6541C115.568 36.7003 115.347 36.7234 115.122 36.7234C114.56 36.7234 114.114 36.5597 113.785 36.2323C113.457 35.905 113.294 35.4622 113.294 34.904C113.294 34.3269 113.449 33.8694 113.759 33.5316C114.072 33.1916 114.493 33.0216 115.022 33.0216C115.496 33.0216 115.871 33.1748 116.145 33.4812C116.422 33.7855 116.561 34.1999 116.561 34.7246V34.7245ZM115.982 34.5545C115.978 34.2377 115.889 33.9848 115.714 33.7959C115.542 33.607 115.313 33.5126 115.028 33.5126C114.705 33.5126 114.446 33.6039 114.251 33.7865C114.057 33.969 113.946 34.2261 113.917 34.5577L115.982 34.5545Z" fill="white"/>
<path d="M121.971 35.9616V34.6993H120.932V34.1768H122.6V36.1945C122.355 36.3687 122.084 36.5009 121.788 36.5911C121.492 36.6792 121.176 36.7233 120.841 36.7233C120.106 36.7233 119.531 36.5093 119.116 36.0812C118.702 35.651 118.495 35.0529 118.495 34.2869C118.495 33.5189 118.702 32.9208 119.116 32.4927C119.531 32.0625 120.106 31.8474 120.841 31.8474C121.147 31.8474 121.438 31.8852 121.712 31.9607C121.989 32.0363 122.244 32.1475 122.477 32.2944V32.9712C122.242 32.7718 121.993 32.6218 121.728 32.521C121.464 32.4203 121.186 32.37 120.894 32.37C120.319 32.37 119.887 32.5305 119.597 32.8516C119.31 33.1726 119.166 33.6511 119.166 34.2869C119.166 34.9207 119.31 35.3981 119.597 35.7192C119.887 36.0402 120.319 36.2008 120.894 36.2008C121.119 36.2008 121.319 36.1819 121.495 36.1442C121.672 36.1043 121.83 36.0434 121.971 35.9616V35.9616Z" fill="white"/>
<path d="M126.734 34.7245V35.0078H124.071C124.096 35.4065 124.216 35.7108 124.43 35.9206C124.646 36.1284 124.946 36.2323 125.33 36.2323C125.552 36.2323 125.768 36.205 125.975 36.1505C126.185 36.096 126.393 36.0141 126.599 35.905V36.4527C126.391 36.5408 126.178 36.6079 125.96 36.6541C125.741 36.7003 125.52 36.7234 125.295 36.7234C124.733 36.7234 124.287 36.5597 123.958 36.2323C123.63 35.905 123.467 35.4622 123.467 34.904C123.467 34.3269 123.622 33.8694 123.932 33.5316C124.245 33.1916 124.666 33.0216 125.195 33.0216C125.669 33.0216 126.044 33.1748 126.318 33.4812C126.595 33.7855 126.734 34.1999 126.734 34.7246V34.7245ZM126.155 34.5545C126.151 34.2377 126.062 33.9848 125.887 33.7959C125.715 33.607 125.486 33.5126 125.201 33.5126C124.878 33.5126 124.619 33.6039 124.423 33.7865C124.23 33.969 124.119 34.2261 124.09 34.5577L126.155 34.5545Z" fill="white"/>
<path d="M129.912 33.2104V33.7581C129.748 33.6742 129.578 33.6113 129.402 33.5693C129.225 33.5273 129.043 33.5063 128.854 33.5063C128.566 33.5063 128.35 33.5504 128.206 33.6385C128.063 33.7267 127.992 33.8589 127.992 34.0351C127.992 34.1695 128.043 34.2754 128.146 34.3531C128.249 34.4286 128.455 34.501 128.766 34.5703L128.964 34.6143C129.375 34.7025 129.667 34.8273 129.839 34.9889C130.013 35.1484 130.101 35.3719 130.101 35.6594C130.101 35.9868 129.97 36.2459 129.71 36.4369C129.452 36.6279 129.096 36.7233 128.643 36.7233C128.454 36.7233 128.257 36.7045 128.051 36.6667C127.848 36.6311 127.633 36.5765 127.406 36.5031V35.905C127.62 36.0162 127.831 36.1001 128.039 36.1568C128.246 36.2113 128.452 36.2386 128.656 36.2386C128.928 36.2386 129.138 36.1924 129.285 36.1001C129.432 36.0057 129.506 35.8734 129.506 35.7034C129.506 35.5461 129.452 35.4254 129.345 35.3415C129.24 35.2576 129.008 35.1768 128.649 35.0991L128.448 35.0519C128.089 34.9764 127.83 34.861 127.67 34.7057C127.511 34.5483 127.431 34.3332 127.431 34.0604C127.431 33.7288 127.549 33.4728 127.784 33.2923C128.019 33.1118 128.352 33.0216 128.785 33.0216C128.999 33.0216 129.2 33.0373 129.389 33.0688C129.578 33.1002 129.752 33.1474 129.912 33.2104V33.2104Z" fill="white"/>
<path d="M131.578 32.1056V33.1066H132.771V33.5567H131.578V35.4705C131.578 35.758 131.617 35.9427 131.694 36.0246C131.774 36.1064 131.935 36.1473 132.176 36.1473H132.771V36.6321H132.176C131.729 36.6321 131.42 36.5492 131.25 36.3834C131.08 36.2155 130.995 35.9112 130.995 35.4705V33.5567H130.571V33.1066H130.995V32.1056H131.578Z" fill="white"/>
<path d="M135.117 34.8598C134.649 34.8598 134.324 34.9133 134.144 35.0203C133.964 35.1273 133.873 35.3099 133.873 35.568C133.873 35.7736 133.94 35.9373 134.075 36.059C134.211 36.1787 134.396 36.2385 134.629 36.2385C134.95 36.2385 135.207 36.1251 135.4 35.8985C135.595 35.6698 135.693 35.3665 135.693 34.9888V34.8597L135.117 34.8598ZM136.272 34.6205V36.6319H135.693V36.0968C135.56 36.3109 135.396 36.4693 135.198 36.5721C135.001 36.6728 134.76 36.7232 134.474 36.7232C134.114 36.7232 133.826 36.6225 133.612 36.421C133.4 36.2175 133.294 35.9457 133.294 35.6058C133.294 35.2091 133.426 34.9101 133.691 34.7087C133.957 34.5072 134.354 34.4065 134.881 34.4065H135.693V34.3499C135.693 34.0834 135.605 33.8777 135.428 33.7329C135.254 33.586 135.009 33.5126 134.692 33.5126C134.49 33.5126 134.294 33.5367 134.103 33.5849C133.912 33.6332 133.728 33.7056 133.552 33.8021V33.267C133.764 33.1852 133.97 33.1243 134.169 33.0844C134.369 33.0425 134.563 33.0215 134.751 33.0215C135.261 33.0215 135.642 33.1537 135.894 33.4181C136.146 33.6825 136.272 34.0834 136.272 34.6206V34.6205ZM134.764 32.3195L134.585 32.1464C134.538 32.1044 134.498 32.074 134.462 32.0552C134.428 32.0341 134.398 32.0236 134.371 32.0236C134.291 32.0236 134.232 32.0624 134.194 32.14C134.157 32.2156 134.136 32.3394 134.131 32.5115H133.738C133.742 32.2282 133.798 32.0099 133.905 31.8567C134.012 31.7014 134.161 31.6238 134.352 31.6238C134.432 31.6238 134.505 31.6385 134.572 31.6679C134.639 31.6972 134.712 31.7466 134.789 31.8158L134.969 31.9889C135.015 32.0309 135.055 32.0624 135.088 32.0834C135.124 32.1023 135.156 32.1117 135.183 32.1117C135.263 32.1117 135.321 32.0739 135.359 31.9984C135.397 31.9208 135.418 31.7959 135.422 31.6238H135.816C135.812 31.9071 135.756 32.1264 135.649 32.2817C135.542 32.4349 135.393 32.5114 135.202 32.5114C135.122 32.5114 135.049 32.4968 134.981 32.4674C134.914 32.438 134.842 32.3887 134.764 32.3194L134.764 32.3195Z" fill="white"/>
<path d="M138.814 33.5124C138.503 33.5124 138.258 33.6341 138.077 33.8776C137.897 34.1189 137.806 34.4505 137.806 34.8723C137.806 35.2941 137.896 35.6267 138.074 35.8701C138.254 36.1114 138.501 36.2321 138.814 36.2321C139.122 36.2321 139.367 36.1104 139.547 35.8669C139.728 35.6235 139.818 35.292 139.818 34.8723C139.818 34.4546 139.728 34.1241 139.547 33.8807C139.367 33.6352 139.122 33.5124 138.814 33.5124ZM138.814 33.0214C139.317 33.0214 139.713 33.1851 140 33.5124C140.288 33.8398 140.432 34.2931 140.432 34.8723C140.432 35.4493 140.288 35.9026 140 36.2321C139.713 36.5594 139.317 36.7231 138.814 36.7231C138.308 36.7231 137.911 36.5594 137.624 36.2321C137.338 35.9026 137.196 35.4493 137.196 34.8723C137.196 34.2931 137.338 33.8398 137.624 33.5124C137.911 33.1851 138.308 33.0214 138.814 33.0214Z" fill="white"/>
<path d="M144.938 33.6416V31.7341H145.517V36.632H144.938V36.1032C144.816 36.313 144.662 36.4693 144.475 36.5722C144.29 36.6729 144.068 36.7233 143.808 36.7233C143.382 36.7233 143.034 36.5533 142.766 36.2133C142.499 35.8734 142.366 35.4264 142.366 34.8724C142.366 34.3184 142.499 33.8714 142.766 33.5314C143.034 33.1915 143.382 33.0215 143.808 33.0215C144.068 33.0215 144.29 33.0729 144.475 33.1757C144.662 33.2765 144.816 33.4318 144.938 33.6416ZM142.964 34.8724C142.964 35.2984 143.051 35.6331 143.225 35.8765C143.401 36.1179 143.643 36.2385 143.949 36.2385C144.256 36.2385 144.497 36.1179 144.673 35.8765C144.849 35.6331 144.938 35.2984 144.938 34.8724C144.938 34.4464 144.849 34.1127 144.673 33.8714C144.497 33.628 144.256 33.5062 143.949 33.5062C143.643 33.5062 143.401 33.628 143.225 33.8714C143.051 34.1127 142.964 34.4464 142.964 34.8724Z" fill="white"/>
<path d="M149.705 34.7245V35.0078H147.042C147.067 35.4065 147.186 35.7108 147.401 35.9206C147.617 36.1284 147.917 36.2323 148.301 36.2323C148.523 36.2323 148.738 36.205 148.946 36.1505C149.156 36.096 149.364 36.0141 149.569 35.905V36.4527C149.362 36.5408 149.149 36.6079 148.93 36.6541C148.712 36.7003 148.491 36.7234 148.266 36.7234C147.704 36.7234 147.258 36.5597 146.928 36.2323C146.601 35.905 146.437 35.4622 146.437 34.904C146.437 34.3269 146.593 33.8694 146.903 33.5316C147.216 33.1916 147.637 33.0216 148.165 33.0216C148.64 33.0216 149.014 33.1748 149.289 33.4812C149.566 33.7855 149.705 34.1999 149.705 34.7246V34.7245ZM149.125 34.5545C149.122 34.2377 149.032 33.9848 148.858 33.7959C148.686 33.607 148.457 33.5126 148.172 33.5126C147.849 33.5126 147.589 33.6039 147.394 33.7865C147.201 33.969 147.09 34.2261 147.061 34.5577L149.125 34.5545Z" fill="white"/>
<path d="M151.909 31.9323H154.881V32.4674H152.545V33.8587H154.783V34.3939H152.545V36.0968H154.937V36.6319H151.909V31.9323Z" fill="white"/>
<path d="M158.191 33.2104V33.7581C158.027 33.6742 157.857 33.6113 157.681 33.5693C157.504 33.5273 157.322 33.5063 157.133 33.5063C156.845 33.5063 156.629 33.5504 156.484 33.6385C156.342 33.7267 156.27 33.8589 156.27 34.0351C156.27 34.1695 156.322 34.2754 156.425 34.3531C156.527 34.4286 156.734 34.501 157.045 34.5703L157.243 34.6143C157.654 34.7025 157.946 34.8273 158.118 34.9889C158.292 35.1484 158.379 35.3719 158.379 35.6594C158.379 35.9868 158.249 36.2459 157.989 36.4369C157.731 36.6279 157.375 36.7233 156.922 36.7233C156.733 36.7233 156.536 36.7045 156.33 36.6667C156.127 36.6311 155.912 36.5765 155.685 36.5031V35.905C155.899 36.0162 156.11 36.1001 156.318 36.1568C156.525 36.2113 156.731 36.2386 156.935 36.2386C157.207 36.2386 157.417 36.1924 157.564 36.1001C157.711 36.0057 157.784 35.8734 157.784 35.7034C157.784 35.5461 157.731 35.4254 157.624 35.3415C157.519 35.2576 157.287 35.1768 156.928 35.0991L156.727 35.0519C156.368 34.9764 156.109 34.861 155.949 34.7057C155.79 34.5483 155.71 34.3332 155.71 34.0604C155.71 33.7288 155.828 33.4728 156.063 33.2923C156.298 33.1118 156.631 33.0216 157.064 33.0216C157.278 33.0216 157.479 33.0373 157.668 33.0688C157.857 33.1002 158.031 33.1474 158.191 33.2104V33.2104Z" fill="white"/>
<path d="M159.857 32.1056V33.1066H161.05V33.5567H159.857V35.4705C159.857 35.758 159.896 35.9427 159.973 36.0246C160.053 36.1064 160.213 36.1473 160.455 36.1473H161.05V36.6321H160.455C160.008 36.6321 159.699 36.5492 159.529 36.3834C159.359 36.2155 159.274 35.9112 159.274 35.4705V33.5567H158.849V33.1066H159.274V32.1056H159.857Z" fill="white"/>
<path d="M163.16 33.5124C162.849 33.5124 162.604 33.6341 162.423 33.8776C162.243 34.1189 162.153 34.4505 162.153 34.8723C162.153 35.2941 162.242 35.6267 162.42 35.8701C162.601 36.1114 162.847 36.2321 163.16 36.2321C163.468 36.2321 163.713 36.1104 163.893 35.8669C164.074 35.6235 164.164 35.292 164.164 34.8723C164.164 34.4546 164.074 34.1241 163.893 33.8807C163.713 33.6352 163.468 33.5124 163.16 33.5124ZM163.16 33.0214C163.663 33.0214 164.059 33.1851 164.347 33.5124C164.634 33.8398 164.778 34.2931 164.778 34.8723C164.778 35.4493 164.634 35.9026 164.347 36.2321C164.059 36.5594 163.663 36.7231 163.16 36.7231C162.654 36.7231 162.257 36.5594 161.97 36.2321C161.685 35.9026 161.542 35.4493 161.542 34.8723C161.542 34.2931 161.685 33.8398 161.97 33.5124C162.257 33.1851 162.654 33.0214 163.16 33.0214Z" fill="white"/>
<path d="M166.06 34.8723C166.06 35.2983 166.147 35.633 166.321 35.8764C166.497 36.1177 166.739 36.2384 167.045 36.2384C167.351 36.2384 167.593 36.1177 167.769 35.8764C167.945 35.633 168.033 35.2983 168.033 34.8723C168.033 34.4463 167.945 34.1126 167.769 33.8713C167.593 33.6278 167.351 33.5061 167.045 33.5061C166.739 33.5061 166.497 33.6278 166.321 33.8713C166.147 34.1126 166.06 34.4463 166.06 34.8723ZM168.033 36.103C167.912 36.3129 167.757 36.4692 167.571 36.5721C167.386 36.6728 167.163 36.7231 166.903 36.7231C166.477 36.7231 166.13 36.5532 165.861 36.2132C165.595 35.8732 165.462 35.4263 165.462 34.8723C165.462 34.3183 165.595 33.8713 165.861 33.5313C166.13 33.1913 166.477 33.0214 166.903 33.0214C167.163 33.0214 167.386 33.0728 167.571 33.1756C167.757 33.2763 167.912 33.4316 168.033 33.6415V33.1064H168.612V37.9728H168.033V36.103Z" fill="white"/>
<path d="M169.725 35.2408V33.1066H170.304V35.2187C170.304 35.5524 170.369 35.8032 170.499 35.971C170.63 36.1368 170.825 36.2197 171.085 36.2197C171.398 36.2197 171.644 36.12 171.825 35.9207C172.007 35.7213 172.098 35.4495 172.098 35.1054V33.1066H172.678V36.6321H172.098V36.0907C171.958 36.3047 171.794 36.4642 171.607 36.5691C171.423 36.6719 171.208 36.7233 170.962 36.7233C170.557 36.7233 170.25 36.5974 170.04 36.3456C169.83 36.0938 169.725 35.7255 169.725 35.2408Z" fill="white"/>
<path d="M176.872 34.7245V35.0078H174.209C174.234 35.4065 174.354 35.7108 174.568 35.9206C174.784 36.1284 175.084 36.2323 175.468 36.2323C175.69 36.2323 175.905 36.205 176.113 36.1505C176.323 36.096 176.531 36.0141 176.736 35.905V36.4527C176.529 36.5408 176.316 36.6079 176.097 36.6541C175.879 36.7003 175.658 36.7234 175.433 36.7234C174.871 36.7234 174.425 36.5597 174.095 36.2323C173.768 35.905 173.604 35.4622 173.604 34.904C173.604 34.3269 173.76 33.8694 174.07 33.5316C174.383 33.1916 174.804 33.0216 175.332 33.0216C175.807 33.0216 176.181 33.1748 176.456 33.4812C176.733 33.7855 176.872 34.1999 176.872 34.7246V34.7245ZM176.293 34.5545C176.289 34.2377 176.199 33.9848 176.025 33.7959C175.853 33.607 175.624 33.5126 175.339 33.5126C175.016 33.5126 174.756 33.6039 174.561 33.7865C174.368 33.969 174.257 34.2261 174.228 34.5577L176.293 34.5545Z" fill="white"/>
<path d="M180.049 33.2104V33.7581C179.885 33.6742 179.715 33.6113 179.539 33.5693C179.363 33.5273 179.18 33.5063 178.991 33.5063C178.704 33.5063 178.488 33.5504 178.343 33.6385C178.2 33.7267 178.129 33.8589 178.129 34.0351C178.129 34.1695 178.18 34.2754 178.283 34.3531C178.386 34.4286 178.592 34.501 178.903 34.5703L179.101 34.6143C179.513 34.7025 179.804 34.8273 179.976 34.9889C180.151 35.1484 180.238 35.3719 180.238 35.6594C180.238 35.9868 180.108 36.2459 179.847 36.4369C179.589 36.6279 179.234 36.7233 178.78 36.7233C178.591 36.7233 178.394 36.7045 178.188 36.6667C177.985 36.6311 177.77 36.5765 177.543 36.5031V35.905C177.757 36.0162 177.968 36.1001 178.176 36.1568C178.384 36.2113 178.589 36.2386 178.793 36.2386C179.066 36.2386 179.275 36.1924 179.422 36.1001C179.569 36.0057 179.643 35.8734 179.643 35.7034C179.643 35.5461 179.589 35.4254 179.482 35.3415C179.377 35.2576 179.145 35.1768 178.787 35.0991L178.585 35.0519C178.226 34.9764 177.967 34.861 177.808 34.7057C177.648 34.5483 177.568 34.3332 177.568 34.0604C177.568 33.7288 177.686 33.4728 177.921 33.2923C178.156 33.1118 178.49 33.0216 178.922 33.0216C179.136 33.0216 179.337 33.0373 179.526 33.0688C179.715 33.1002 179.889 33.1474 180.049 33.2104V33.2104Z" fill="white"/>
<path d="M1.52551 0C0.682941 0 0 0.682941 0 1.52551V38.4745C0 39.317 0.682941 40 1.52551 40H38.6213C39.4639 40 40.1497 39.317 40.1497 38.4745V1.52551C40.1497 0.682941 39.4639 0 38.6213 0H1.52551ZM1.52551 0.414478H38.6213C39.2406 0.414478 39.7352 0.906162 39.7352 1.52551V38.4745C39.7352 39.0938 39.2406 39.5855 38.6213 39.5855H1.52551C0.90616 39.5855 0.414478 39.0938 0.414478 38.4745V1.52551C0.414478 0.906162 0.90616 0.414478 1.52551 0.414478Z" fill="white"/>
<path d="M20.2504 12.4887C22.2227 12.4887 23.8215 10.8898 23.8215 8.91756C23.8215 6.94528 22.2227 5.34644 20.2504 5.34644C18.2781 5.34644 16.6793 6.94528 16.6793 8.91756C16.6793 10.8898 18.2781 12.4887 20.2504 12.4887Z" fill="white"/>
<path d="M22.7975 14.2743H17.5195V34.677H22.7975V14.2743Z" fill="white"/>
<defs>
<linearGradient id="paint0_linear" x1="20.1113" y1="0.76449" x2="20.1113" y2="39.3105" gradientUnits="userSpaceOnUse">
<stop stop-color="#065B88"/>
<stop offset="1" stop-color="#67C8F6"/>
</linearGradient>
</defs>
</svg>
